<?xml version="1.0" encoding="utf-8"?>
<!-- Generator: Adobe Illustrator 28.1.0, SVG Export Plug-In . SVG Version: 6.00 Build 0)  -->
<svg version="1.1" id="Layer_1" xmlns="http://www.w3.org/2000/svg" xmlns:xlink="http://www.w3.org/1999/xlink" x="0px" y="0px"
	 viewBox="0 0 593 200" style="enable-background:new 0 0 593 200;" xml:space="preserve">
<style type="text/css">
	.st0{fill:#990000;}
</style>
<g>
	<path d="M16.77,26.36c1.7-0.41,3.91-0.64,6.21-0.64c3.86,0,6.4,0.83,8.14,2.53c1.24,1.29,1.89,2.94,1.89,5.11
		c0,3.17-2.25,5.84-5.34,6.95v0.09c2.58,0.6,6.53,2.85,6.53,7.91c0,2.53-0.87,4.46-2.3,5.93c-2.02,2.12-5.38,2.94-9.75,2.94
		c-2.39,0-4.19-0.18-5.38-0.28V26.36z M18.93,39.56h4.55c4.46,0,7.27-2.62,7.27-6.07c0-4.37-3.27-5.93-7.87-5.93
		c-2.07,0-3.27,0.14-3.96,0.32V39.56z M18.93,55.11c0.92,0.18,2.21,0.23,3.82,0.23c4.74,0,9.2-1.7,9.2-6.99
		c0-4.88-4.19-6.99-9.11-6.99h-3.91V55.11z"/>
	<path d="M41.66,28.56c0,1.01-0.69,1.89-1.84,1.89c-1.01,0-1.7-0.87-1.7-1.89s0.78-1.93,1.79-1.93
		C40.97,26.63,41.66,27.51,41.66,28.56z M38.81,56.95V34.87h2.16v22.08H38.81z"/>
	<path d="M50.31,28.47v6.39h6.3v1.75h-6.3v14.35c0,2.81,0.87,4.6,3.22,4.6c1.15,0,1.98-0.18,2.53-0.37l0.28,1.7
		c-0.74,0.28-1.75,0.51-3.08,0.51c-1.61,0-2.94-0.51-3.77-1.56c-1.01-1.15-1.38-2.99-1.38-5.24V36.61h-3.73v-1.75h3.73v-5.7
		L50.31,28.47z"/>
	<path d="M60.47,56.95V36.61H57.3v-1.75h3.17v-1.2c0-3.4,0.64-6.16,2.44-7.96c1.33-1.33,3.17-1.93,4.88-1.93
		c1.43,0,2.67,0.37,3.31,0.74l-0.69,1.75c-0.6-0.32-1.47-0.64-2.81-0.64c-4.09,0-4.97,3.77-4.97,8v1.24h5.93v1.75h-5.93v20.33H60.47
		z"/>
	<path d="M89.41,45.68c0,8.28-5.66,11.78-10.58,11.78c-5.7,0-10.12-4.46-10.12-11.36c0-7.59,4.97-11.73,10.44-11.73
		C85.27,34.36,89.41,38.92,89.41,45.68z M70.92,45.95c0,5.52,3.54,9.66,8.05,9.66c4.6,0,8.23-4.14,8.23-9.8
		c0-4.05-2.3-9.66-8.1-9.66C73.49,36.15,70.92,41.22,70.92,45.95z"/>
	<path d="M109.1,55.98c-0.97,0.51-3.27,1.43-6.44,1.43c-6.39,0-10.63-4.6-10.63-11.27c0-6.99,4.78-11.78,11.41-11.78
		c2.71,0,4.92,0.78,5.8,1.38l-0.78,1.79c-1.1-0.6-2.81-1.29-5.24-1.29c-5.93,0-8.97,4.55-8.97,9.75c0,5.75,3.63,9.52,8.74,9.52
		c2.62,0,4.32-0.74,5.52-1.24L109.1,55.98z"/>
	<path d="M130.22,51.57c0,1.93,0.09,3.68,0.18,5.38h-2.02l-0.14-3.91h-0.09c-1.1,2.02-3.63,4.42-7.59,4.42
		c-2.81,0-7.5-1.38-7.5-9.75V34.87h2.16v12.42c0,4.78,1.52,8.23,5.89,8.23c3.22,0,5.57-2.25,6.49-4.46
		c0.23-0.69,0.46-1.56,0.46-2.44V34.87h2.16V51.57z"/>
	<path d="M135.6,54.05c1.2,0.74,2.99,1.52,4.97,1.52c3.5,0,5.15-1.89,5.15-4.19c0-2.44-1.47-3.73-4.65-5.01
		c-3.63-1.38-5.61-3.36-5.61-6.03c0-3.17,2.48-5.98,6.81-5.98c2.02,0,3.73,0.6,4.88,1.38l-0.87,1.79c-0.74-0.55-2.16-1.33-4.37-1.33
		c-2.81,0-4.28,1.79-4.28,3.82c0,2.3,1.56,3.31,4.55,4.55c3.59,1.38,5.71,3.17,5.71,6.53c0,3.77-2.94,6.3-7.45,6.3
		c-2.16,0-4.14-0.6-5.61-1.52L135.6,54.05z"/>
</g>
<g>
	<g>
		<path class="st0" d="M423.24,91.88V41.95l-1.16-1.54c1.04-0.78,1.73-2.02,1.73-3.42c0-2.37-1.92-4.28-4.28-4.28
			c-2.37,0-4.28,1.92-4.28,4.28c0,1.4,0.68,2.64,1.72,3.42l-1.15,1.54v42.58c-8.69-7.43-19.74-13.56-32.42-17.88V20.58l-1.15-1.54
			c1.04-0.79,1.72-2.02,1.72-3.42c0-2.36-1.92-4.28-4.28-4.28c-2.37,0-4.29,1.92-4.29,4.28c0,1.4,0.68,2.64,1.72,3.42l-1.15,1.54
			v43.79c-10.07-2.74-20.98-4.36-32.41-4.67V16.29l-1.16-1.54c1.04-0.78,1.73-2.02,1.73-3.41c0-2.36-1.92-4.29-4.29-4.29
			c-2.37,0-4.28,1.92-4.28,4.29c0,1.4,0.68,2.64,1.72,3.41l-1.15,1.54v43.39c-11.48,0.27-22.45,1.84-32.57,4.55V20.58l-1.15-1.54
			c1.04-0.78,1.72-2.02,1.72-3.42c0-2.36-1.92-4.28-4.28-4.28c-2.37,0-4.29,1.92-4.29,4.28c0,1.4,0.68,2.64,1.72,3.42l-1.15,1.54
			v45.9c-12.65,4.24-23.69,10.28-32.42,17.62V41.95l-1.16-1.54c1.04-0.78,1.72-2.02,1.72-3.42c0-2.37-1.92-4.28-4.28-4.28
			c-2.36,0-4.29,1.92-4.29,4.28c0,1.4,0.68,2.63,1.72,3.42l-1.15,1.54v49.34c-1.93,2.16-3.72,4.39-5.26,6.71h22.26
			c14.49-12.82,39.04-21.44,66.24-21.44c27.21,0,51.75,8.62,66.24,21.44H428C426.59,95.89,424.97,93.86,423.24,91.88z"/>
		<path class="st0" d="M293.28,51.6c-9.83,2.98-18.84,6.88-26.76,11.53v6.43c7.76-4.88,16.79-8.98,26.76-12.12V51.6z"/>
		<path class="st0" d="M333.13,45.06c-9.29,0.35-18.25,1.46-26.76,3.22v5.74c8.48-1.8,17.45-2.93,26.76-3.3
			C333.13,50.72,333.13,45.06,333.13,45.06z"/>
		<path class="st0" d="M333.13,29.61c-9.25,0.31-18.22,1.28-26.76,2.81v5.7c8.52-1.56,17.49-2.54,26.76-2.86
			C333.13,35.27,333.13,29.61,333.13,29.61z"/>
		<path class="st0" d="M293.28,35.32c-9.69,2.54-18.69,5.85-26.76,9.81v6.15c7.96-4.11,16.97-7.55,26.76-10.19
			C293.28,41.09,293.28,35.32,293.28,35.32z"/>
		<path class="st0" d="M412.98,63.13c-7.92-4.64-16.93-8.54-26.76-11.53v5.85c9.98,3.13,19,7.24,26.76,12.12V63.13z"/>
		<path class="st0" d="M373.13,48.28c-8.51-1.76-17.48-2.86-26.76-3.22v5.66c9.31,0.36,18.28,1.5,26.76,3.3
			C373.13,54.02,373.13,48.28,373.13,48.28z"/>
		<path class="st0" d="M373.13,32.42c-8.55-1.54-17.51-2.5-26.76-2.81v5.66c9.28,0.32,18.25,1.3,26.76,2.86V32.42z"/>
		<path class="st0" d="M412.98,45.13c-8.07-3.96-17.08-7.26-26.76-9.81v5.77c9.79,2.64,18.81,6.08,26.76,10.19V45.13z"/>
	</g>
</g>
<g>
	<path d="M67.31,167.37c-4.79,1.6-13.63,3.57-21.9,3.57c-12.41,0-20.87-3.1-26.6-8.55c-5.92-5.64-9.02-13.82-9.02-22.93
		c0.09-21.99,16.54-33.18,37.03-33.18c8.55,0,15.04,1.5,18.33,3.1l-3.38,13.54c-3.57-1.5-7.9-2.63-15.04-2.63
		c-10.43,0-19.08,5.45-19.08,18.33c0,11.84,7.61,18.7,17.95,18.7c2.35,0,4.51-0.19,5.36-0.56v-10.9h-8.46v-13.16h24.81V167.37z"/>
	<path d="M87.14,153.08c0.56,3.67,5.83,5.73,11.84,5.73c4.32,0,8.46-0.47,12.6-1.79l2.16,11.37c-5.54,2.16-11.56,2.91-17.29,2.91
		c-16.26,0-25.47-9.02-25.47-23.69c0-10.72,6.96-24.63,23.97-24.63c14.95,0,21.34,11,21.34,23.69c0,2.73-0.38,5.26-0.66,6.39H87.14z
		 M100.68,141.62c0-2.63-1.22-7.52-6.58-7.52c-4.98,0-6.86,4.61-7.14,7.52H100.68z"/>
	<path d="M119.2,139.83c0-6.2-0.19-11.47-0.38-15.79h14.66l0.75,5.92h0.28c1.69-2.44,6.2-6.96,13.91-6.96
		c10.81,0,16.73,7.33,16.73,20.02v27.26h-17.01v-25.19c0-5.36-1.79-8.46-5.92-8.46c-3.29,0-4.79,2.26-5.55,4.04
		c-0.38,0.85-0.47,2.16-0.47,3.38v26.22H119.2V139.83z"/>
	<path d="M184.71,153.08c0.56,3.67,5.83,5.73,11.84,5.73c4.32,0,8.46-0.47,12.6-1.79l2.16,11.37c-5.55,2.16-11.56,2.91-17.29,2.91
		c-16.26,0-25.47-9.02-25.47-23.69c0-10.72,6.96-24.63,23.97-24.63c14.94,0,21.34,11,21.34,23.69c0,2.73-0.38,5.26-0.66,6.39H184.71
		z M198.25,141.62c0-2.63-1.22-7.52-6.58-7.52c-4.98,0-6.86,4.61-7.14,7.52H198.25z"/>
	<path d="M216.77,139.64c0-7.33-0.09-11.75-0.38-15.6h14.47l0.66,8.37h0.38c2.44-7.05,8.27-9.4,12.31-9.4c1.5,0,2.16,0,3.38,0.28
		v15.88c-1.22-0.28-2.54-0.47-4.32-0.47c-4.98,0-8.37,2.07-9.3,5.83c-0.09,0.75-0.19,1.79-0.19,2.91v22.84h-17.01V139.64z"/>
	<path d="M266.77,111.35c0,4.42-3.38,7.99-8.74,7.99c-5.26,0-8.55-3.57-8.55-7.99c0-4.7,3.38-8.08,8.65-8.08
		S266.68,106.65,266.77,111.35z M249.57,170.28v-46.25h17.01v46.25H249.57z"/>
	<path d="M307.85,169.25c-2.73,1.32-7.52,1.97-12.69,1.97c-15.41,0-25.1-9.02-25.1-23.69c0-13.25,9.12-24.53,27.16-24.53
		c3.29,0,7.33,0.47,10.62,1.6l-2.35,12.41c-1.6-0.66-3.85-1.13-7.33-1.13c-6.3,0-10.81,4.32-10.71,11c0,7.61,5.17,11.19,11.19,11.19
		c2.91,0,5.26-0.38,7.43-1.22L307.85,169.25z"/>
	<path class="st0" d="M324.68,107.78c3.85-0.66,12.22-1.32,20.02-1.32c9.02,0,14.47,0.66,19.36,3.1c4.98,2.26,8.55,6.86,8.55,13.06
		c0,5.26-2.91,10.43-10.34,13.25v0.19c7.71,2.16,12.41,7.9,12.41,15.42c0,6.02-2.91,10.72-7.14,13.82
		c-4.7,3.57-12.59,5.73-26.13,5.73c-7.71,0-13.35-0.47-16.73-1.03V107.78z M341.5,131.28h3.38c7.24,0,10.72-2.54,10.72-6.58
		c0-3.67-2.82-6.02-8.55-6.02c-2.82,0-4.42,0.09-5.55,0.38V131.28z M341.5,158.44c1.22,0.19,2.73,0.19,4.89,0.19
		c5.64,0,10.43-2.26,10.43-7.9c0-5.36-4.89-7.43-11.28-7.43h-4.04V158.44z"/>
	<path class="st0" d="M378.63,139.64c0-7.33-0.09-11.75-0.38-15.6h14.47l0.66,8.37h0.38c2.44-7.05,8.27-9.4,12.31-9.4
		c1.5,0,2.16,0,3.38,0.28v15.88c-1.22-0.28-2.54-0.47-4.32-0.47c-4.98,0-8.37,2.07-9.31,5.83c-0.09,0.75-0.19,1.79-0.19,2.91v22.84
		h-17.01V139.64z"/>
	<path class="st0" d="M428.64,111.35c0,4.42-3.38,7.99-8.74,7.99c-5.26,0-8.55-3.57-8.55-7.99c0-4.7,3.38-8.08,8.65-8.08
		S428.55,106.65,428.64,111.35z M411.44,170.28v-46.25h17.01v46.25H411.44z"/>
	<path class="st0" d="M481.09,103.55v52.17c0,5.73,0.19,11.47,0.38,14.57h-15.04l-0.66-6.2h-0.19c-3.01,5.17-8.65,7.24-14,7.24
		c-10.71,0-19.64-9.31-19.64-23.78c-0.09-15.6,9.78-24.53,20.68-24.53c5.08,0,9.31,1.5,11.37,4.51h0.19v-23.97H481.09z
		 M464.17,144.06c0-0.66,0-1.5-0.09-2.16c-0.66-3.29-3.2-5.92-6.67-5.92c-5.73,0-8.27,5.08-8.27,11.09c0,7.14,3.48,10.81,8.18,10.81
		c3.38,0,6.02-2.44,6.58-5.55c0.28-0.94,0.28-1.97,0.28-3.1V144.06z"/>
	<path class="st0" d="M532.41,163.52c0,8.08-1.6,15.79-7.24,20.68c-5.26,4.51-12.31,5.73-19.46,5.73c-6.39,0-12.88-1.22-17.2-3.48
		l3.2-12.78c2.82,1.6,8.08,3.38,13.35,3.38c6.02,0,10.72-3.29,10.72-10.43v-2.07h-0.19c-2.82,3.48-6.96,5.17-11.56,5.17
		c-11.28,0-19.46-9.02-19.46-22.46c0-14.57,9.4-24.25,20.96-24.25c5.64,0,9.49,2.16,11.94,6.02h0.19l0.56-4.98h14.57
		c-0.19,2.91-0.38,6.86-0.38,14.29V163.52z M515.49,143.12c0-0.75-0.09-1.5-0.19-2.16c-0.75-3.38-2.91-5.26-6.02-5.26
		c-4.04,0-7.52,3.95-7.52,11.28c0,6.02,2.82,10.43,7.52,10.43c3.1,0,5.36-2.07,5.92-4.61c0.28-0.94,0.28-2.44,0.28-3.48V143.12z"/>
	<path class="st0" d="M552.06,153.08c0.56,3.67,5.83,5.73,11.84,5.73c4.32,0,8.46-0.47,12.6-1.79l2.16,11.37
		c-5.54,2.16-11.56,2.91-17.29,2.91c-16.26,0-25.47-9.02-25.47-23.69c0-10.72,6.96-24.63,23.97-24.63c14.95,0,21.34,11,21.34,23.69
		c0,2.73-0.38,5.26-0.66,6.39H552.06z M565.59,141.62c0-2.63-1.22-7.52-6.58-7.52c-4.98,0-6.86,4.61-7.14,7.52H565.59z"/>
</g>
<g>
	<path d="M38.18,94.66c-1.56,0.83-4.55,1.56-8.33,1.56c-7.5,0-14.68-4.78-14.68-15.78c0-9.2,5.94-16.19,15.69-16.19
		c3.96,0,6.26,0.87,7.22,1.38l-0.74,1.84c-1.56-0.78-3.82-1.33-6.44-1.33c-8.37,0-13.48,5.43-13.48,14.35
		c0,8.42,4.83,13.85,13.11,13.85c2.67,0,5.24-0.55,6.99-1.43L38.18,94.66z"/>
	<path d="M60.81,84.49c0,8.28-5.66,11.78-10.58,11.78c-5.7,0-10.12-4.46-10.12-11.36c0-7.59,4.97-11.73,10.44-11.73
		C56.67,73.17,60.81,77.73,60.81,84.49z M42.31,84.77c0,5.52,3.54,9.66,8.05,9.66c4.6,0,8.23-4.14,8.23-9.8
		c0-4.05-2.3-9.66-8.1-9.66C44.89,74.97,42.31,80.03,42.31,84.77z"/>
	<path d="M65.27,78.97c0-2.02-0.09-3.54-0.18-5.29h2.02l0.18,3.91h0.09c1.38-2.53,3.5-4.42,7.13-4.42c3.08,0,5.43,2.02,6.35,4.83
		h0.09c0.64-1.33,1.43-2.3,2.25-2.99c1.43-1.2,2.94-1.84,5.29-1.84c2.16,0,7.18,1.2,7.18,9.57v13.02h-2.16V82.97
		c0-4.97-1.93-7.91-5.75-7.91c-2.76,0-4.97,2.02-5.8,4.37c-0.23,0.64-0.41,1.38-0.41,2.16v14.17h-2.16v-13.8c0-4-1.93-6.9-5.47-6.9
		c-2.99,0-5.29,2.39-6.12,4.97c-0.23,0.6-0.37,1.38-0.37,2.12v13.62h-2.16V78.97z"/>
	<path d="M101.8,80.72c0-2.76-0.09-4.97-0.18-7.04h2.07l0.18,4.19h0.09c1.56-2.94,4.28-4.69,8.14-4.69c5.66,0,9.48,4.69,9.48,11.18
		c0,7.91-4.69,11.92-10.03,11.92c-3.17,0-5.98-1.43-7.5-4.09h-0.09v12.7h-2.16V80.72z M103.96,87.07c0,0.6,0.09,1.2,0.18,1.75
		c0.92,3.4,3.86,5.61,7.27,5.61c5.06,0,7.96-4.09,7.96-9.98c0-4.97-2.76-9.48-7.77-9.48c-3.22,0-6.35,2.25-7.31,5.89
		c-0.14,0.6-0.32,1.29-0.32,1.89V87.07z"/>
	<path d="M138.09,95.76l-0.32-3.17h-0.14c-1.06,1.7-3.5,3.68-7.04,3.68c-4.42,0-6.49-3.13-6.49-6.07c0-5.11,4.51-8.19,13.48-8.1
		v-0.55c0-2.21-0.41-6.58-5.66-6.53c-1.93,0-3.96,0.51-5.52,1.66l-0.69-1.61c1.98-1.33,4.46-1.89,6.44-1.89
		c6.39,0,7.59,4.78,7.59,8.74v8.6c0,1.75,0.09,3.54,0.32,5.24H138.09z M137.59,83.94c-4.83-0.14-11.18,0.6-11.18,5.89
		c0,3.17,2.12,4.6,4.42,4.6c3.68,0,5.75-2.25,6.53-4.42c0.14-0.46,0.23-0.92,0.23-1.33V83.94z"/>
	<path d="M145.77,78.97c0-2.02-0.09-3.54-0.18-5.29h2.02l0.18,4h0.09c1.2-2.48,3.96-4.51,7.59-4.51c2.12,0,7.68,1.06,7.68,9.34
		v13.25H161V82.7c0-4-1.56-7.64-6.12-7.64c-3.13,0-5.75,2.21-6.62,5.06c-0.18,0.55-0.32,1.29-0.32,1.98v13.66h-2.16V78.97z"/>
	<path d="M172.13,67.38c0,1.01-0.69,1.89-1.84,1.89c-1.01,0-1.7-0.87-1.7-1.89s0.78-1.93,1.79-1.93
		C171.44,65.45,172.13,66.32,172.13,67.38z M169.28,95.76V73.68h2.16v22.08H169.28z"/>
	<path d="M196.61,84.49c0,8.28-5.66,11.78-10.58,11.78c-5.71,0-10.12-4.46-10.12-11.36c0-7.59,4.97-11.73,10.44-11.73
		C192.47,73.17,196.61,77.73,196.61,84.49z M178.11,84.77c0,5.52,3.54,9.66,8.05,9.66c4.6,0,8.23-4.14,8.23-9.8
		c0-4.05-2.3-9.66-8.1-9.66C180.69,74.97,178.11,80.03,178.11,84.77z"/>
	<path d="M201.07,78.97c0-2.02-0.09-3.54-0.18-5.29h2.02l0.18,4h0.09c1.2-2.48,3.96-4.51,7.59-4.51c2.12,0,7.68,1.06,7.68,9.34
		v13.25h-2.16V82.7c0-4-1.56-7.64-6.12-7.64c-3.13,0-5.75,2.21-6.62,5.06c-0.18,0.55-0.32,1.29-0.32,1.98v13.66h-2.16V78.97z"/>
</g>
</svg>
